<svg width="18" height="24" viewBox="0 0 18 24" fill="none" xmlns="http://www.w3.org/2000/svg">
<path d="M6.3 15.75L9 13.05L11.7 15.75L12.75 14.7L10.05 12L12.75 9.3L11.7 8.25L9 10.95L6.3 8.25L5.25 9.3L7.95 12L5.25 14.7L6.3 15.75ZM9 19.5C7.9625 19.5 6.9875 19.3031 6.075 18.9094C5.1625 18.5156 4.36875 17.9813 3.69375 17.3063C3.01875 16.6313 2.48438 15.8375 2.09063 14.925C1.69687 14.0125 1.5 13.0375 1.5 12C1.5 10.9625 1.69687 9.9875 2.09063 9.075C2.48438 8.1625 3.01875 7.36875 3.69375 6.69375C4.36875 6.01875 5.1625 5.48438 6.075 5.09063C6.9875 4.69687 7.9625 4.5 9 4.5C10.0375 4.5 11.0125 4.69687 11.925 5.09063C12.8375 5.48438 13.6313 6.01875 14.3063 6.69375C14.9813 7.36875 15.5156 8.1625 15.9094 9.075C16.3031 9.9875 16.5 10.9625 16.5 12C16.5 13.0375 16.3031 14.0125 15.9094 14.925C15.5156 15.8375 14.9813 16.6313 14.3063 17.3063C13.6313 17.9813 12.8375 18.5156 11.925 18.9094C11.0125 19.3031 10.0375 19.5 9 19.5ZM9 18C10.675 18 12.0938 17.4188 13.2563 16.2563C14.4188 15.0938 15 13.675 15 12C15 10.325 14.4188 8.90625 13.2563 7.74375C12.0938 6.58125 10.675 6 9 6C7.325 6 5.90625 6.58125 4.74375 7.74375C3.58125 8.90625 3 10.325 3 12C3 13.675 3.58125 15.0938 4.74375 16.2563C5.90625 17.4188 7.325 18 9 18Z" fill="#1A1B21"/>
</svg>
