<svg width="44" height="44" viewBox="0 0 44 44" fill="none" xmlns="http://www.w3.org/2000/svg">
<rect width="44" height="44" rx="22" fill="#567AF9"/>
<path d="M21.9991 21.9834C24.1649 21.9834 26.2439 22.8351 27.7872 24.3545C29.3305 25.874 30.2144 27.9399 30.2482 30.1055C30.2507 30.2511 30.2105 30.3943 30.1329 30.5176C30.0554 30.6408 29.9439 30.739 29.8116 30.7998C27.3608 31.9235 24.6953 32.5037 21.9991 32.5C19.2133 32.5 16.5665 31.8917 14.1876 30.7998C14.0551 30.739 13.943 30.641 13.8653 30.5176C13.7878 30.3943 13.7476 30.2511 13.7501 30.1055C13.7838 27.94 14.6678 25.874 16.211 24.3545C17.7543 22.835 19.8334 21.9834 21.9991 21.9834ZM21.9991 11.5C23.1926 11.5 24.3369 11.9745 25.1808 12.8184C26.0247 13.6623 26.4991 14.8065 26.4991 16C26.4991 17.1935 26.0247 18.3377 25.1808 19.1816C24.3369 20.0255 23.1926 20.5 21.9991 20.5C20.8057 20.5 19.6614 20.0255 18.8175 19.1816C17.9736 18.3377 17.4991 17.1934 17.4991 16C17.4991 14.8066 17.9736 13.6623 18.8175 12.8184C19.6614 11.9745 20.8057 11.5 21.9991 11.5Z" fill="#FAFBFF"/>
</svg>
