<svg width="36" height="36" viewBox="0 0 36 36" fill="none" xmlns="http://www.w3.org/2000/svg">
<path d="M13.4298 7.0769C15.2367 6.97437 20.6516 6.97436 22.4581 7.0769C24.2109 7.16481 25.7639 7.56524 27.0431 8.84447C28.3272 10.1237 28.7277 11.6766 28.8107 13.4294C28.9132 15.2361 28.9132 20.6462 28.8107 22.4529C28.7228 24.2057 28.3223 25.7586 27.0431 27.0378C25.7639 28.3219 24.2109 28.7224 22.4581 28.8054C20.6516 28.9079 15.2367 28.9079 13.4298 28.8054C11.6769 28.7175 10.129 28.317 8.84485 27.0378C7.56068 25.7585 7.16028 24.2058 7.07727 22.4529C6.97473 20.6462 6.97473 15.2312 7.07727 13.4246C7.16516 11.6716 7.56067 10.1189 8.84485 8.83959C10.129 7.56039 11.6818 7.1599 13.4298 7.0769ZM17.9464 8.97143C16.3547 8.97143 12.9368 8.8397 11.4962 9.41088C10.5343 9.79661 9.79701 10.534 9.41614 11.491C8.84973 12.9265 8.97668 16.3494 8.97668 17.9412C8.97668 19.533 8.84485 22.9509 9.41614 24.3913C9.80189 25.3532 10.5392 26.0906 11.4962 26.4714C12.9319 27.0377 16.3547 26.9109 17.9464 26.9109C19.5383 26.9109 22.9563 27.0427 24.3966 26.4714C25.3584 26.0857 26.0959 25.3483 26.4767 24.3913C27.0479 22.9558 26.9161 19.5329 26.9161 17.9412C26.9161 16.3494 27.0479 12.9315 26.4767 11.491C26.091 10.5291 25.3535 9.79177 24.3966 9.41088C22.9611 8.84451 19.5383 8.97141 17.9464 8.97143ZM17.9464 12.3308C21.0518 12.3309 23.5568 14.8358 23.5568 17.9412C23.5568 21.0465 21.0517 23.5514 17.9464 23.5515C14.8409 23.5515 12.3361 21.0466 12.3361 17.9412C12.3361 14.8357 14.8409 12.3308 17.9464 12.3308ZM17.9464 14.2937C15.9347 14.2937 14.299 15.9294 14.299 17.9412C14.299 19.9529 15.9396 21.5886 17.9464 21.5886C19.9531 21.5885 21.5939 19.9528 21.5939 17.9412C21.5939 15.9295 19.958 14.2938 17.9464 14.2937ZM23.7863 10.7927C24.5088 10.7929 25.0948 11.3787 25.0948 12.1013C25.0948 12.8287 24.5088 13.4098 23.7863 13.4099C23.0587 13.4099 22.4777 12.824 22.4777 12.1013C22.4777 11.3787 23.0636 10.7927 23.7863 10.7927Z" fill="white"/>
</svg>
