<svg width="24" height="24" viewBox="0 0 24 24" fill="none" xmlns="http://www.w3.org/2000/svg">
<path d="M12 2C14.6522 2 17.1959 3.05335 19.0713 4.92871C20.9467 6.80407 22 9.34784 22 12C22 13.3132 21.7418 14.6139 21.2393 15.8271C20.7367 17.0404 19.9998 18.1427 19.0713 19.0713C18.1427 19.9998 17.0404 20.7367 15.8271 21.2393C14.6139 21.7418 13.3132 22 12 22C10.6868 22 9.38611 21.7418 8.17285 21.2393C6.95964 20.7367 5.85727 19.9998 4.92871 19.0713C4.00015 18.1427 3.26329 17.0404 2.76074 15.8271C2.2582 14.6139 2 13.3132 2 12C2 9.34784 3.05335 6.80407 4.92871 4.92871C6.80407 3.05335 9.34784 2 12 2ZM12 4C9.87827 4 7.84306 4.84248 6.34277 6.34277C4.84248 7.84306 4 9.87827 4 12C4 13.0506 4.20734 14.0909 4.60938 15.0615C5.01141 16.0321 5.59995 16.9144 6.34277 17.6572C7.08559 18.4 7.96795 18.9886 8.93848 19.3906C9.90908 19.7927 10.9494 20 12 20C13.0506 20 14.0909 19.7927 15.0615 19.3906C16.0321 18.9886 16.9144 18.4 17.6572 17.6572C18.4 16.9144 18.9886 16.0321 19.3906 15.0615C19.7927 14.0909 20 13.0506 20 12C20 9.87827 19.1575 7.84306 17.6572 6.34277C16.1569 4.84248 14.1217 4 12 4ZM11.8115 10.1611L11.9355 10.1787C12.1813 10.2229 12.4146 10.3191 12.6201 10.4609L12.7207 10.5352L12.8154 10.6172C13.0291 10.8151 13.1905 11.0637 13.2842 11.3408C13.3912 11.6577 13.4049 11.9987 13.3242 12.3232V12.3242L12.7178 14.751C13.0921 14.7392 13.4575 14.9385 13.6396 15.2939C13.8914 15.7854 13.6974 16.3878 13.2061 16.6396L13.165 16.6611L13.1562 16.665C12.8568 16.8148 12.5204 16.8763 12.1875 16.8408C11.8548 16.8053 11.5393 16.6743 11.2783 16.4648C11.0173 16.2553 10.8216 15.9754 10.7148 15.6582C10.6081 15.341 10.5945 14.9995 10.6758 14.6748L11.2812 12.249C10.9001 12.2607 10.5296 12.0534 10.3516 11.6885C10.1095 11.1922 10.3153 10.5938 10.8115 10.3516L10.8438 10.335C11.1055 10.2042 11.3955 10.1423 11.6865 10.1523L11.8115 10.1611ZM12.0078 7.25C12.5601 7.25 13.0078 7.69772 13.0078 8.25V8.25781C13.0078 8.8101 12.5601 9.25781 12.0078 9.25781H12C11.4477 9.25781 11 8.8101 11 8.25781V8.25C11 7.69772 11.4477 7.25 12 7.25H12.0078Z" fill="#48BE38"/>
</svg>
